<svg xmlns="http://www.w3.org/2000/svg" viewBox="0 0 76.14 85.66">
    <defs>
        <style>
            .cls-1 {
                fill: #1d1d1b;
            }
        </style>
    </defs>
    <title>Asset 7</title>
    <g id="SVGRepo_bgCarrier" stroke-width="0">
        <rect x="-50" y="-50" width="200" height="200" rx="0" fill="#ffffff" strokewidth="0"></rect>
    </g>
    <g id="SVGRepo_tracerCarrier" stroke-linecap="round" stroke-linejoin="round"></g>
    <g id="Layer_2" data-name="Layer 2">
        <g id="Ebene_1" data-name="Ebene 1">
            <path class="cls-1" d="M7.38,27.23A2.13,2.13,0,1,1,9.51,25.1,2.14,2.14,0,0,1,7.38,27.23Z" />
            <path class="cls-1" d="M68.78,27.25a2.13,2.13,0,1,0-2.13-2.13A2.13,2.13,0,0,0,68.78,27.25Z" />
            <circle class="cls-1" cx="38.07" cy="78.28" r="2.13" />
            <path class="cls-1"
                d="M38.07,85.66a7.37,7.37,0,0,1-7-9.79L12.94,65.38A7.37,7.37,0,0,1,0,60.54,7.45,7.45,0,0,1,6,53.3v-21A7.46,7.46,0,0,1,0,25.1a7.38,7.38,0,0,1,12.94-4.85L31.09,9.77a7.38,7.38,0,1,1,14,0L63.21,20.25A7.37,7.37,0,0,1,76.14,25.1a7.46,7.46,0,0,1-6,7.24v21a7.38,7.38,0,0,1-1.42,14.62,7.31,7.31,0,0,1-5.55-2.54L45,75.87a7.37,7.37,0,0,1-7,9.79Zm0-11.93a4.55,4.55,0,1,0,4.55,4.55A4.55,4.55,0,0,0,38.07,73.73ZM39.49,71a7.37,7.37,0,0,1,4.13,2.38L61.79,62.93a7.19,7.19,0,0,1-.41-2.39,7.45,7.45,0,0,1,6-7.24v-21A7.29,7.29,0,0,1,63,29.71L45.15,39.05a7.59,7.59,0,0,1,.3,2.12,7.45,7.45,0,0,1-6,7.24Zm-7,2.38A7.37,7.37,0,0,1,36.65,71V48.4A7.4,7.4,0,0,1,31,39.06L13.13,29.71A7.29,7.29,0,0,1,8.8,32.34v21a7.45,7.45,0,0,1,6,7.24,7.19,7.19,0,0,1-.41,2.39ZM68.76,56a4.54,4.54,0,1,0,4.55,4.54A4.54,4.54,0,0,0,68.76,56ZM7.38,56a4.54,4.54,0,1,0,4.54,4.54A4.55,4.55,0,0,0,7.38,56Zm30.7-19.38a4.55,4.55,0,1,0,4.54,4.55A4.55,4.55,0,0,0,38.08,36.62Zm-5.75-.07a7.36,7.36,0,0,1,11.49,0L61.69,27.2a7.41,7.41,0,0,1-.31-2.1,7.19,7.19,0,0,1,.41-2.39L43.63,12.23a7.37,7.37,0,0,1-11.12,0L14.35,22.71a7.19,7.19,0,0,1,.41,2.39,7.07,7.07,0,0,1-.31,2.1Zm36.43-16a4.55,4.55,0,1,0,4.55,4.55A4.55,4.55,0,0,0,68.76,20.55Zm-61.38,0a4.55,4.55,0,1,0,4.54,4.55A4.55,4.55,0,0,0,7.38,20.55ZM38.07,2.84a4.54,4.54,0,1,0,4.55,4.54A4.54,4.54,0,0,0,38.07,2.84Z" />
        </g>
    </g>
</svg>